<svg xmlns="http://www.w3.org/2000/svg" width="476" height="524" viewBox="0 0 476 524">
<g>
<path d="M 81.50 482.29 C79.85,482.06 75.80,481.19 72.50,480.35 C54.90,475.89 36.74,459.90 29.90,442.83 C24.38,429.08 24.73,439.45 24.29,279.00 C24.07,197.32 24.30,120.83 24.80,109.00 C25.68,88.37 25.84,87.18 28.84,79.50 C36.13,60.85 50.16,47.14 69.51,39.78 L 75.50 37.50 L 396.16 36.96 L 404.59 39.86 C424.77,46.82 438.05,59.70 446.53,80.55 L 449.35 87.50 L 450.26 126.50 C450.75,147.95 450.90,224.23 450.59,296.00 C449.96,441.20 450.46,431.40 442.91,446.81 C435.03,462.92 418.99,475.67 399.99,480.93 C392.60,482.98 391.32,483.00 238.52,482.85 C153.81,482.77 83.15,482.51 81.50,482.29 ZM 207.00 250.30 C221.57,254.41 234.18,257.62 235.00,257.45 C235.82,257.27 245.05,254.80 255.50,251.95 C265.95,249.10 279.90,245.32 286.50,243.56 L 298.50 240.35 L 298.77 222.72 L 299.05 205.10 L 292.27 203.12 C288.55,202.03 275.38,198.37 263.00,195.00 C250.62,191.62 239.20,188.44 237.61,187.93 C235.30,187.19 230.95,188.03 216.11,192.07 C200.04,196.44 176.35,203.00 170.73,204.63 C169.10,205.11 168.98,206.61 169.23,222.32 L 169.50 239.50 L 175.00 241.17 C178.02,242.08 192.43,246.19 207.00,250.30 ZM 202.50 297.96 C218.45,302.31 232.34,305.90 233.37,305.94 C235.08,305.99 253.56,301.34 286.00,292.68 L 298.50 289.35 L 298.77 270.67 C298.98,256.40 298.75,252.00 297.81,252.00 C297.13,252.00 282.59,255.83 265.49,260.51 L 234.41 269.02 L 221.45 265.44 C187.15,255.98 172.10,252.00 170.62,252.00 C169.19,252.00 169.00,254.08 169.00,270.02 C169.00,287.75 169.04,288.06 171.25,289.05 C172.49,289.60 186.55,293.62 202.50,297.96 ZM 199.64 346.19 C216.61,350.95 232.07,354.86 234.00,354.87 C235.93,354.88 251.23,351.16 268.00,346.61 L 298.50 338.34 L 298.77 319.55 L 299.05 300.76 L 296.77 301.25 C295.52,301.52 281.05,305.40 264.61,309.86 L 234.72 317.98 L 228.61 316.42 C225.25,315.56 210.86,311.72 196.64,307.88 C182.41,304.04 170.49,301.18 170.15,301.52 C169.80,301.86 169.36,310.11 169.15,319.84 L 168.79 337.54 ZM 73.66 376.25 L 75.05 379.00 L 81.24 375.88 C84.64,374.16 95.09,368.63 104.46,363.58 C113.83,358.53 129.49,350.16 139.25,344.98 L 157.00 335.56 L 157.00 310.28 C157.00,296.31 156.60,285.00 156.12,285.00 C155.63,285.00 152.37,286.97 148.87,289.37 C145.36,291.77 137.67,297.06 131.76,301.12 C125.85,305.18 113.78,313.45 104.93,319.50 C87.31,331.56 64.70,347.12 64.15,347.58 C63.67,347.97 71.90,372.76 73.66,376.25 ZM 371.00 370.18 C380.62,374.96 389.05,378.90 389.73,378.94 C390.73,378.99 407.59,358.82 410.33,354.30 C410.80,353.52 408.18,351.33 402.78,347.98 C380.16,333.97 335.16,306.23 324.74,299.87 C318.27,295.92 312.64,293.02 312.24,293.43 C311.83,293.83 311.36,304.72 311.18,317.62 L 310.87 341.08 L 332.18 351.28 C343.91,356.89 361.38,365.39 371.00,370.18 ZM 246.50 178.34 C253.10,180.22 259.09,181.81 259.81,181.88 C260.82,181.97 260.99,180.47 260.55,175.25 C260.23,171.54 259.32,160.85 258.52,151.50 C257.72,142.15 256.38,125.72 255.54,115.00 C253.28,86.37 253.13,82.58 251.56,81.87 C251.19,81.70 250.74,81.70 250.15,81.58 C243.49,80.25 221.67,76.99 221.37,77.29 C221.19,77.47 220.38,95.15 219.56,116.56 C218.75,137.98 217.84,160.54 217.54,166.69 C217.24,172.85 217.36,178.10 217.80,178.38 C218.24,178.65 222.18,177.98 226.55,176.90 L 234.50 174.93 Z" fill="rgba(59,99,220,1)"/>
<path d="M 73.66 376.25 C71.90,372.76 63.67,347.97 64.15,347.58 C64.70,347.12 87.31,331.56 104.93,319.50 C113.78,313.45 125.85,305.18 131.76,301.12 C137.67,297.06 145.36,291.77 148.87,289.37 C152.37,286.97 155.63,285.00 156.12,285.00 C156.60,285.00 157.00,296.31 157.00,310.28 L 157.00 335.56 L 139.25 344.98 C129.49,350.16 113.83,358.53 104.46,363.58 C95.09,368.63 84.64,374.16 81.24,375.88 L 75.05 379.00 L 73.66 376.25 ZM 371.00 370.18 C361.38,365.39 343.91,356.89 332.18,351.28 L 310.87 341.08 L 311.18 317.62 C311.36,304.72 311.83,293.83 312.24,293.43 C312.64,293.02 318.27,295.92 324.74,299.87 C335.16,306.23 380.16,333.97 402.78,347.98 C408.18,351.33 410.80,353.52 410.33,354.30 C407.59,358.82 390.73,378.99 389.73,378.94 C389.05,378.90 380.62,374.96 371.00,370.18 ZM 199.64 346.19 L 168.79 337.54 L 169.15 319.84 C169.36,310.11 169.80,301.86 170.15,301.52 C170.49,301.18 182.41,304.04 196.64,307.88 C210.86,311.72 225.25,315.56 228.61,316.42 L 234.72 317.98 L 264.61 309.86 C281.05,305.40 295.52,301.52 296.77,301.25 L 299.05 300.76 L 298.77 319.55 L 298.50 338.34 L 268.00 346.61 C251.23,351.16 235.93,354.88 234.00,354.87 C232.07,354.86 216.61,350.95 199.64,346.19 ZM 202.50 297.96 C186.55,293.62 172.49,289.60 171.25,289.05 C169.04,288.06 169.00,287.75 169.00,270.02 C169.00,254.08 169.19,252.00 170.62,252.00 C172.10,252.00 187.15,255.98 221.45,265.44 L 234.41 269.02 L 265.49 260.51 C282.59,255.83 297.13,252.00 297.81,252.00 C298.75,252.00 298.98,256.40 298.77,270.67 L 298.50 289.35 L 286.00 292.68 C253.56,301.34 235.08,305.99 233.37,305.94 C232.34,305.90 218.45,302.31 202.50,297.96 ZM 207.00 250.30 C192.43,246.19 178.02,242.08 175.00,241.17 L 169.50 239.50 L 169.23 222.32 C168.98,206.61 169.10,205.11 170.73,204.63 C176.35,203.00 200.04,196.44 216.11,192.07 C230.95,188.03 235.30,187.19 237.61,187.93 C239.20,188.44 250.62,191.62 263.00,195.00 C275.38,198.37 288.55,202.03 292.27,203.12 L 299.05 205.10 L 298.77 222.72 L 298.50 240.35 L 286.50 243.56 C279.90,245.32 265.95,249.10 255.50,251.95 C245.05,254.80 235.82,257.27 235.00,257.45 C234.18,257.62 221.57,254.41 207.00,250.30 ZM 246.50 178.34 L 234.50 174.93 L 226.55 176.90 C222.18,177.98 218.24,178.65 217.80,178.38 C217.36,178.10 217.24,172.85 217.54,166.69 C217.84,160.54 218.75,137.98 219.56,116.56 C220.38,95.15 221.19,77.47 221.37,77.29 C221.67,76.99 243.49,80.25 250.15,81.58 C253.17,82.19 252.74,79.52 255.54,115.00 C256.38,125.72 257.72,142.15 258.52,151.50 C259.32,160.85 260.23,171.54 260.55,175.25 C260.99,180.47 260.82,181.97 259.81,181.88 C259.09,181.81 253.10,180.22 246.50,178.34 Z" fill="rgba(251,253,253,1)"/>
</g>
</svg>